<svg width="180" height="99" viewBox="0 0 180 99" fill="none" xmlns="http://www.w3.org/2000/svg">
<path fill-rule="evenodd" clip-rule="evenodd" d="M10.1758 69.7567L10.1995 69.7736C13.7498 72.2589 18.0146 73.4452 22.8733 73.4452C25.8181 73.4452 28.6577 72.8117 31.3721 71.5589L31.4136 71.5393C32.8616 70.8339 34.1414 69.9696 35.2375 68.9436C35.7544 69.6542 36.3884 70.3066 37.1226 70.8995C39.1482 72.5356 41.5547 73.3697 44.2412 73.4443C44.2617 73.4449 44.282 73.4452 44.3022 73.4452C46.4819 73.4452 48.5356 72.9145 50.4268 71.8555L50.4512 71.8416C52.4329 70.6985 53.9565 69.1057 54.9663 67.0862C55.4656 66.0877 55.1353 64.8735 54.199 64.2657L48.865 60.8034C48.3552 60.4725 47.731 60.368 47.1411 60.5148C46.5513 60.6616 46.0488 61.0466 45.7537 61.5779C45.5671 61.914 45.4175 62.0397 45.3547 62.0815C45.3118 62.1102 45.2634 62.1342 45.1443 62.1342C45.0645 62.1342 44.9998 62.1301 44.9482 62.1244C44.9241 62.0063 44.9045 61.8396 44.9045 61.6137V2.19318C44.9045 0.981934 43.9226 0 42.7114 0H35.0383C33.8269 0 32.845 0.981934 32.845 2.19318V20.1855C29.5718 19.8952 27.1084 19.7444 25.4934 19.7444C20.4619 19.7444 15.939 20.9225 11.9983 23.3411C8.14233 25.6835 5.15454 28.9582 3.04517 33.1089L3.03882 33.1216C0.99585 37.2075 0 41.7927 0 46.8287C0 51.5094 0.791992 55.8752 2.40259 59.9017L2.41968 59.9428C4.12939 63.9778 6.71704 67.2665 10.1758 69.7567ZM28.2346 60.613C26.6758 61.6187 24.9099 62.1342 22.8733 62.1342C19.6455 62.1342 17.1267 60.8096 15.146 57.9526C13.1309 54.8934 12.0596 51.039 12.0596 46.2673C12.0596 41.5255 13.3894 37.9139 15.8772 35.2144C18.2661 32.6221 21.9578 31.149 27.365 31.149C28.7773 31.149 30.1558 31.2901 31.5029 31.5708C31.99 31.6723 32.4385 31.7629 32.845 31.8416V52.1626C32.845 53.72 32.5381 55.1414 31.9382 56.4529C31.0488 58.2188 29.8188 59.5909 28.2346 60.613Z" fill="#FE5B18"/>
<path fill-rule="evenodd" clip-rule="evenodd" d="M67.3857 70.1093L67.4272 70.1351C71.1372 72.375 75.5076 73.4452 80.4451 73.4452C87.6528 73.4452 94.4102 71.0083 100.672 66.2625C101.142 65.9066 101.448 65.3767 101.523 64.7923C101.597 64.2079 101.434 63.618 101.069 63.1555L96.8579 57.8217C96.1238 56.8921 94.7844 56.7131 93.832 57.4175C89.6077 60.5424 85.2529 62.0406 80.7258 62.0406C77.2732 62.0406 74.7124 61.1343 72.8296 59.51C71.4729 58.2557 70.408 56.5823 69.6899 54.4102L76.5649 54.5424C83.1846 54.6735 88.7961 53.3007 93.2107 50.2176C97.7297 47.0615 100.043 42.6152 100.043 37.0969C100.043 33.6928 99.1157 30.6243 97.2153 27.9803C95.418 25.3317 92.979 23.3368 89.9597 21.9988C86.9773 20.6151 83.7651 19.9316 80.3516 19.9316C75.1814 19.9316 70.6829 21.3708 66.9958 24.3488C63.4529 27.2104 60.8 30.8237 59.043 35.1485C57.3162 39.399 56.4487 43.7963 56.4487 48.326C56.4487 52.9236 57.3503 57.1535 59.1929 60.9754L59.1997 60.9894C61.063 64.785 63.8027 67.8354 67.3857 70.1093ZM86.0442 32.8553L86.0728 32.8766C87.3174 33.7894 87.9836 35.0616 87.9836 37.0033C87.9836 39.112 87.1646 40.5381 85.4133 41.5709C83.4424 42.7333 80.5715 43.4191 76.6084 43.4191H69.0198C69.3208 41.9464 69.8032 40.4455 70.4756 38.9143C71.4595 36.6728 72.8647 34.8422 74.6973 33.387L74.7063 33.3798L74.7275 33.3625C76.4375 31.9543 78.4338 31.2426 80.8193 31.2426C82.9619 31.2426 84.6641 31.8083 86.0442 32.8553Z" fill="#FE5B18"/>
<path d="M121.829 61.988C121.829 62.0949 121.843 62.1642 121.871 62.2212C121.894 62.2246 121.928 62.2278 121.975 62.2278C122 62.2278 122.014 62.2259 122.02 62.2247L122.027 62.22C122.054 62.2004 122.184 62.0938 122.353 61.7558C122.629 61.2027 123.127 60.792 123.722 60.625C124.317 60.4579 124.956 60.55 125.48 60.8786L131.001 64.3409C131.979 64.9545 132.314 66.2218 131.766 67.2387C130.733 69.1585 129.336 70.7215 127.571 71.8725L127.551 71.8858C125.776 73.0153 123.732 73.5388 121.507 73.5388C118.133 73.5388 115.204 72.5557 112.967 70.3978L112.932 70.3641L112.91 70.3414C110.744 68.095 109.769 65.1294 109.769 61.7073V2.28674C109.769 1.0755 110.751 0.0935669 111.962 0.0935669H119.636C120.847 0.0935669 121.829 1.0755 121.829 2.28674V61.988Z" fill="#FE5B18"/>
<path fill-rule="evenodd" clip-rule="evenodd" d="M161.827 60.5079C163.3 59.7462 164.957 58.3767 166.782 56.2584C167.553 55.3496 167.847 54.4997 167.847 53.6598V53.653L167.94 23.5216C167.944 22.313 168.925 21.3352 170.134 21.3352H177.807C178.39 21.3352 178.948 21.5672 179.36 21.9798C179.771 22.3924 180.002 22.9519 180 23.5346L179.906 56.7478V79.6738C179.906 84.9838 178.362 89.5036 175.126 93.0323C171.938 96.5782 167.776 98.3363 162.835 98.3363C159.764 98.3363 156.909 97.5468 154.317 95.9673C151.725 94.4502 149.678 92.3192 148.189 89.6243L148.179 89.6064C146.742 86.9485 146.044 83.9956 146.044 80.7967C146.044 78.3115 146.543 75.9652 147.56 73.7868C147.568 73.7689 147.576 73.7511 147.585 73.7335C147.97 72.964 148.405 72.245 148.891 71.5797C146.147 70.6968 143.793 69.3044 141.894 67.3552L141.874 67.3341C139.139 64.4523 137.809 60.8368 137.809 56.6542V37.3776C137.809 32.8795 136.604 30.0548 134.645 28.3752C134.17 27.9682 133.892 27.378 133.879 26.7528C133.867 26.1276 134.122 25.527 134.581 25.1018L139.728 20.3294C140.425 19.6826 141.46 19.5592 142.29 20.0241C144.307 21.1535 145.986 23.0616 147.406 25.4922C148.966 28.0516 149.796 30.8213 149.868 33.7682L149.869 33.8217V54.3148C149.869 57.2914 150.534 59.049 151.442 60.0352C152.313 60.9824 153.831 61.6663 156.472 61.6663C158.622 61.6663 160.385 61.254 161.827 60.5079ZM166.522 84.8688C166.502 84.892 166.482 84.9156 166.462 84.9396C165.617 85.9865 164.467 86.5574 162.741 86.5574C161.122 86.5574 160.003 86.033 159.154 85.0631C158.351 84.1382 157.823 82.7421 157.823 80.6096C157.823 78.8135 158.186 77.5217 158.759 76.5966C159.423 75.6906 160.671 74.6553 162.736 73.5659L162.738 73.5646C163.896 72.9514 165.278 72.093 166.868 71.0119C167.269 70.744 167.658 70.4684 168.034 70.1848V80.0481C168.034 82.2788 167.458 83.8059 166.522 84.8688Z" fill="#FE5B18"/>
</svg>
