<svg width="24" height="24" viewBox="0 0 24 24" fill="none" xmlns="http://www.w3.org/2000/svg">
<path d="M24 12C24 5.37258 18.6274 0 12 0C5.37258 0 0 5.37258 0 12C0 18.6274 5.37258 24 12 24C18.6274 24 24 18.6274 24 12Z" fill="white"/>
<path fill-rule="evenodd" clip-rule="evenodd" d="M21.0001 12.2088C21.0001 11.5571 20.9416 10.9304 20.833 10.3287H12.1763V13.8842H17.123C16.9099 15.0331 16.2623 16.0066 15.2889 16.6584V18.9646H18.2594C19.9974 17.3644 21.0001 15.0081 21.0001 12.2088Z" fill="#4285F4"/>
<path fill-rule="evenodd" clip-rule="evenodd" d="M12.1763 21.1916C14.658 21.1916 16.7386 20.3685 18.2594 18.9647L15.2889 16.6585C14.4658 17.21 13.413 17.5359 12.1763 17.5359C9.78231 17.5359 7.756 15.919 7.03321 13.7465H3.9624V16.1279C5.47483 19.1319 8.58323 21.1916 12.1763 21.1916Z" fill="#34A853"/>
<path fill-rule="evenodd" clip-rule="evenodd" d="M7.03331 13.7463C6.84948 13.1948 6.74503 12.6057 6.74503 11.9999C6.74503 11.3941 6.84948 10.805 7.03331 10.2535V7.87207H3.96251C3.33999 9.11293 2.98486 10.5167 2.98486 11.9999C2.98486 13.4831 3.33999 14.8869 3.96251 16.1277L7.03331 13.7463Z" fill="#FBBC05"/>
<path fill-rule="evenodd" clip-rule="evenodd" d="M12.1763 6.46419C13.5258 6.46419 14.7374 6.92795 15.69 7.83875L18.3263 5.20245C16.7344 3.71927 14.6538 2.80847 12.1763 2.80847C8.58323 2.80847 5.47483 4.86821 3.9624 7.87217L7.03321 10.2536C7.756 8.08107 9.78231 6.46419 12.1763 6.46419Z" fill="#EA4335"/>
</svg>
